<svg xmlns="http://www.w3.org/2000/svg" width="24" height="24" viewBox="0 0 448 512" fill="currentColor">
  <path d="M380.9 97.1C339-9.8 213.1-28.5 122.4 52.1c-61.9 55.4-79.6 142.2-46.6 215.3L24 464l199.6-52.6c67.8 18.4 140.6 2.6 192.4-49.1 70.6-70.5 76.8-188.7 15.9-265.2zM233.6 381.1c-31.5-1.4-63.7-9.9-93.7-25.3l-6.6-3.5-55.6 14.6 14.8-54.2-3.6-6.9c-10.9-20.7-16.6-43.7-16.6-67.2 0-94.2 91.2-163.8 181.1-132.7 31.6 11.1 58.7 33.5 75.1 63.6 28.3 52.5 16.1 118.6-27.2 160.6-27.2 26.3-63.2 38.5-97.7 35zM309.6 309c-3.5-1.8-20.9-10.3-24.1-11.5-3.2-1.2-5.6-1.8-7.9 1.8-2.3 3.5-9.1 11.5-11.2 13.8-2 2.3-4.1 2.6-7.6 0.9-3.5-1.8-14.7-5.4-28-17.3-10.4-9.3-17.5-20.8-19.6-24.3-2-3.5-.2-5.4 1.5-7.2 1.6-1.6 3.5-4.1 5.2-6.1 1.8-2 2.3-3.5 3.5-5.8 1.2-2.3.6-4.4-.3-6.2-.9-1.8-7.9-19-10.8-26.1-2.9-7-5.8-6-7.9-6.1h-6.7c-2.3 0-6.1.9-9.3 4.4-3.2 3.5-12.2 11.9-12.2 29.2s12.5 33.8 14.2 36.2c1.8 2.3 24.5 37.4 59.4 52.4 8.3 3.6 14.8 5.7 19.9 7.3 8.3 2.6 15.8 2.2 21.8 1.4 6.6-1 20.9-8.6 23.9-16.9 3-8.2 3-15.3 2.1-16.9-1.2-2-4.4-3.2-9.1-5.3z"/>
</svg>
